<svg xmlns="http://www.w3.org/2000/svg" xmlns:xlink="http://www.w3.org/1999/xlink" width="150" zoomAndPan="magnify" viewBox="0 0 112.5 112.499997" height="150" preserveAspectRatio="xMidYMid meet" version="1.0"><defs><g/><clipPath id="589beb606d"><path d="M 10.433594 37.859375 L 101.527344 37.859375 L 101.527344 53.539062 L 10.433594 53.539062 Z M 10.433594 37.859375 " clip-rule="nonzero"/></clipPath></defs><g clip-path="url(#589beb606d)"><path fill="#ff3131" d="M 14.824219 46.371094 C 15.476562 45.917969 15.816406 45.492188 15.816406 45.039062 C 15.816406 44.5 15.476562 44.046875 15.050781 43.707031 C 14.824219 43.480469 13.945312 43.167969 14.515625 42.289062 C 19.332031 43.507812 34.640625 37.894531 47.960938 37.894531 C 56.324219 37.894531 64.34375 39.3125 72.394531 42.628906 C 77.46875 42.628906 97.054688 44.726562 101.5625 52.324219 C 101.335938 52.550781 101.023438 53.089844 100.910156 53.429688 L 99.804688 53.429688 C 99.917969 53.089844 100.144531 52.664062 100.34375 52.324219 C 97.480469 47.929688 77.015625 44.386719 71.402344 44.386719 C 63.351562 40.757812 55.21875 39.652344 47.960938 39.652344 C 33.875 39.652344 23.980469 44.273438 16.269531 43.734375 C 16.269531 44.273438 17.148438 44.839844 17.148438 45.71875 C 17.148438 46.484375 16.808594 47.25 16.269531 47.929688 C 14.515625 47.902344 11.847656 49.574219 11.847656 53.402344 L 10.433594 53.402344 C 10.433594 51.53125 10.433594 48.46875 14.824219 46.371094 Z M 14.824219 46.371094 " fill-opacity="1" fill-rule="nonzero"/></g><g fill="#ff3131" fill-opacity="1"><g transform="translate(14.963622, 63.540534)"><g><path d="M 0.0625 0 L 1.609375 -9.71875 L 5.109375 -9.71875 L 4.046875 -2.96875 L 7.046875 -2.96875 L 6.578125 0 Z M 0.0625 0 "/></g></g></g><g fill="#ff3131" fill-opacity="1"><g transform="translate(22.357046, 63.540534)"><g><path d="M 5.34375 0.328125 C 4.332031 0.328125 3.457031 0.15625 2.71875 -0.1875 C 1.988281 -0.539062 1.425781 -1.03125 1.03125 -1.65625 C 0.644531 -2.289062 0.453125 -3.039062 0.453125 -3.90625 C 0.453125 -4.78125 0.601562 -5.585938 0.90625 -6.328125 C 1.207031 -7.066406 1.632812 -7.710938 2.1875 -8.265625 C 2.738281 -8.828125 3.382812 -9.265625 4.125 -9.578125 C 4.875 -9.890625 5.691406 -10.046875 6.578125 -10.046875 C 7.585938 -10.046875 8.457031 -9.867188 9.1875 -9.515625 C 9.914062 -9.171875 10.476562 -8.679688 10.875 -8.046875 C 11.269531 -7.421875 11.46875 -6.675781 11.46875 -5.8125 C 11.46875 -4.945312 11.3125 -4.140625 11 -3.390625 C 10.695312 -2.648438 10.269531 -2 9.71875 -1.4375 C 9.164062 -0.882812 8.519531 -0.453125 7.78125 -0.140625 C 7.039062 0.171875 6.226562 0.328125 5.34375 0.328125 Z M 5.703125 -2.640625 C 6.171875 -2.640625 6.566406 -2.769531 6.890625 -3.03125 C 7.222656 -3.289062 7.472656 -3.628906 7.640625 -4.046875 C 7.816406 -4.460938 7.90625 -4.898438 7.90625 -5.359375 C 7.90625 -5.890625 7.753906 -6.304688 7.453125 -6.609375 C 7.160156 -6.921875 6.738281 -7.078125 6.1875 -7.078125 C 5.726562 -7.078125 5.332031 -6.945312 5 -6.6875 C 4.675781 -6.425781 4.425781 -6.085938 4.25 -5.671875 C 4.082031 -5.265625 4 -4.828125 4 -4.359375 C 4 -3.828125 4.144531 -3.40625 4.4375 -3.09375 C 4.738281 -2.789062 5.160156 -2.640625 5.703125 -2.640625 Z M 5.703125 -2.640625 "/></g></g></g><g fill="#000000" fill-opacity="1"><g transform="translate(33.825328, 63.540534)"><g><path d="M 5.234375 0.328125 C 4.253906 0.328125 3.410156 0.15625 2.703125 -0.1875 C 1.992188 -0.539062 1.441406 -1.039062 1.046875 -1.6875 C 0.660156 -2.332031 0.46875 -3.109375 0.46875 -4.015625 C 0.46875 -4.859375 0.601562 -5.644531 0.875 -6.375 C 1.15625 -7.101562 1.550781 -7.738281 2.0625 -8.28125 C 2.570312 -8.832031 3.171875 -9.265625 3.859375 -9.578125 C 4.554688 -9.890625 5.320312 -10.046875 6.15625 -10.046875 C 7.101562 -10.046875 7.90625 -9.882812 8.5625 -9.5625 C 9.21875 -9.238281 9.710938 -8.789062 10.046875 -8.21875 C 10.390625 -7.644531 10.539062 -6.96875 10.5 -6.1875 L 7.21875 -5.484375 C 7.207031 -5.960938 7.082031 -6.347656 6.84375 -6.640625 C 6.613281 -6.929688 6.300781 -7.078125 5.90625 -7.078125 C 5.488281 -7.078125 5.140625 -6.941406 4.859375 -6.671875 C 4.578125 -6.398438 4.363281 -6.054688 4.21875 -5.640625 C 4.082031 -5.222656 4.015625 -4.796875 4.015625 -4.359375 C 4.015625 -3.828125 4.144531 -3.410156 4.40625 -3.109375 C 4.664062 -2.804688 5.035156 -2.65625 5.515625 -2.65625 C 5.992188 -2.65625 6.429688 -2.816406 6.828125 -3.140625 C 7.222656 -3.472656 7.507812 -3.914062 7.6875 -4.46875 L 10.875 -4.125 C 10.664062 -3.238281 10.289062 -2.457031 9.75 -1.78125 C 9.207031 -1.113281 8.550781 -0.59375 7.78125 -0.21875 C 7.007812 0.144531 6.160156 0.328125 5.234375 0.328125 Z M 5.234375 0.328125 "/></g></g></g><g fill="#000000" fill-opacity="1"><g transform="translate(44.767057, 63.540534)"><g><path d="M -0.546875 0 L 4.109375 -9.71875 L 8.421875 -9.71875 L 10 0 L 6.375 0 L 6.25 -1.515625 L 3.5625 -1.515625 L 2.890625 0 Z M 4.390625 -3.78125 L 6.140625 -3.78125 L 5.859375 -7.109375 L 5.828125 -7.109375 Z M 4.390625 -3.78125 "/></g></g></g><g fill="#000000" fill-opacity="1"><g transform="translate(55.317527, 63.540534)"><g><path d="M 7.328125 0.21875 C 6.753906 0.21875 6.285156 0.0546875 5.921875 -0.265625 C 5.554688 -0.597656 5.34375 -1.050781 5.28125 -1.625 L 5.1875 -2.515625 C 5.15625 -2.710938 5.09375 -2.878906 5 -3.015625 C 4.914062 -3.160156 4.769531 -3.234375 4.5625 -3.234375 L 4.09375 -3.234375 L 3.578125 0 L 0.0625 0 L 1.609375 -9.71875 L 6.4375 -9.71875 C 7.65625 -9.71875 8.585938 -9.476562 9.234375 -9 C 9.878906 -8.519531 10.203125 -7.832031 10.203125 -6.9375 C 10.203125 -6.25 10.015625 -5.632812 9.640625 -5.09375 C 9.265625 -4.5625 8.722656 -4.148438 8.015625 -3.859375 L 8.015625 -3.84375 C 8.191406 -3.769531 8.320312 -3.644531 8.40625 -3.46875 C 8.5 -3.300781 8.5625 -3.085938 8.59375 -2.828125 L 8.640625 -2.28125 C 8.660156 -2.15625 8.703125 -2.050781 8.765625 -1.96875 C 8.835938 -1.882812 8.929688 -1.84375 9.046875 -1.84375 C 9.140625 -1.84375 9.226562 -1.851562 9.3125 -1.875 C 9.40625 -1.90625 9.488281 -1.9375 9.5625 -1.96875 L 9.734375 -0.453125 C 9.429688 -0.253906 9.0625 -0.09375 8.625 0.03125 C 8.195312 0.15625 7.765625 0.21875 7.328125 0.21875 Z M 4.421875 -5.40625 L 5.46875 -5.40625 C 5.851562 -5.40625 6.148438 -5.5 6.359375 -5.6875 C 6.566406 -5.875 6.671875 -6.144531 6.671875 -6.5 C 6.671875 -7.03125 6.367188 -7.296875 5.765625 -7.296875 L 4.71875 -7.296875 Z M 4.421875 -5.40625 "/></g></g></g><g fill="#000000" fill-opacity="1"><g transform="translate(65.638637, 63.540534)"><g><path d="M 7.328125 0.21875 C 6.753906 0.21875 6.285156 0.0546875 5.921875 -0.265625 C 5.554688 -0.597656 5.34375 -1.050781 5.28125 -1.625 L 5.1875 -2.515625 C 5.15625 -2.710938 5.09375 -2.878906 5 -3.015625 C 4.914062 -3.160156 4.769531 -3.234375 4.5625 -3.234375 L 4.09375 -3.234375 L 3.578125 0 L 0.0625 0 L 1.609375 -9.71875 L 6.4375 -9.71875 C 7.65625 -9.71875 8.585938 -9.476562 9.234375 -9 C 9.878906 -8.519531 10.203125 -7.832031 10.203125 -6.9375 C 10.203125 -6.25 10.015625 -5.632812 9.640625 -5.09375 C 9.265625 -4.5625 8.722656 -4.148438 8.015625 -3.859375 L 8.015625 -3.84375 C 8.191406 -3.769531 8.320312 -3.644531 8.40625 -3.46875 C 8.5 -3.300781 8.5625 -3.085938 8.59375 -2.828125 L 8.640625 -2.28125 C 8.660156 -2.15625 8.703125 -2.050781 8.765625 -1.96875 C 8.835938 -1.882812 8.929688 -1.84375 9.046875 -1.84375 C 9.140625 -1.84375 9.226562 -1.851562 9.3125 -1.875 C 9.40625 -1.90625 9.488281 -1.9375 9.5625 -1.96875 L 9.734375 -0.453125 C 9.429688 -0.253906 9.0625 -0.09375 8.625 0.03125 C 8.195312 0.15625 7.765625 0.21875 7.328125 0.21875 Z M 4.421875 -5.40625 L 5.46875 -5.40625 C 5.851562 -5.40625 6.148438 -5.5 6.359375 -5.6875 C 6.566406 -5.875 6.671875 -6.144531 6.671875 -6.5 C 6.671875 -7.03125 6.367188 -7.296875 5.765625 -7.296875 L 4.71875 -7.296875 Z M 4.421875 -5.40625 "/></g></g></g><g fill="#000000" fill-opacity="1"><g transform="translate(75.959748, 63.540534)"><g><path d="M 5.34375 0.328125 C 4.332031 0.328125 3.457031 0.15625 2.71875 -0.1875 C 1.988281 -0.539062 1.425781 -1.03125 1.03125 -1.65625 C 0.644531 -2.289062 0.453125 -3.039062 0.453125 -3.90625 C 0.453125 -4.78125 0.601562 -5.585938 0.90625 -6.328125 C 1.207031 -7.066406 1.632812 -7.710938 2.1875 -8.265625 C 2.738281 -8.828125 3.382812 -9.265625 4.125 -9.578125 C 4.875 -9.890625 5.691406 -10.046875 6.578125 -10.046875 C 7.585938 -10.046875 8.457031 -9.867188 9.1875 -9.515625 C 9.914062 -9.171875 10.476562 -8.679688 10.875 -8.046875 C 11.269531 -7.421875 11.46875 -6.675781 11.46875 -5.8125 C 11.46875 -4.945312 11.3125 -4.140625 11 -3.390625 C 10.695312 -2.648438 10.269531 -2 9.71875 -1.4375 C 9.164062 -0.882812 8.519531 -0.453125 7.78125 -0.140625 C 7.039062 0.171875 6.226562 0.328125 5.34375 0.328125 Z M 5.703125 -2.640625 C 6.171875 -2.640625 6.566406 -2.769531 6.890625 -3.03125 C 7.222656 -3.289062 7.472656 -3.628906 7.640625 -4.046875 C 7.816406 -4.460938 7.90625 -4.898438 7.90625 -5.359375 C 7.90625 -5.890625 7.753906 -6.304688 7.453125 -6.609375 C 7.160156 -6.921875 6.738281 -7.078125 6.1875 -7.078125 C 5.726562 -7.078125 5.332031 -6.945312 5 -6.6875 C 4.675781 -6.425781 4.425781 -6.085938 4.25 -5.671875 C 4.082031 -5.265625 4 -4.828125 4 -4.359375 C 4 -3.828125 4.144531 -3.40625 4.4375 -3.09375 C 4.738281 -2.789062 5.160156 -2.640625 5.703125 -2.640625 Z M 5.703125 -2.640625 "/></g></g></g><g fill="#000000" fill-opacity="1"><g transform="translate(87.42765, 63.540534)"><g><path d="M 4.546875 0.328125 C 3.679688 0.328125 2.925781 0.195312 2.28125 -0.0625 C 1.632812 -0.320312 1.128906 -0.6875 0.765625 -1.15625 C 0.398438 -1.632812 0.203125 -2.195312 0.171875 -2.84375 L 3.390625 -3.375 C 3.410156 -2.988281 3.539062 -2.679688 3.78125 -2.453125 C 4.019531 -2.234375 4.375 -2.125 4.84375 -2.125 C 5.195312 -2.125 5.476562 -2.175781 5.6875 -2.28125 C 5.894531 -2.382812 6 -2.535156 6 -2.734375 C 6 -2.921875 5.898438 -3.070312 5.703125 -3.1875 C 5.503906 -3.3125 5.226562 -3.40625 4.875 -3.46875 L 4.03125 -3.625 C 2.945312 -3.832031 2.15625 -4.15625 1.65625 -4.59375 C 1.164062 -5.039062 0.921875 -5.644531 0.921875 -6.40625 C 0.921875 -7.15625 1.097656 -7.800781 1.453125 -8.34375 C 1.816406 -8.894531 2.320312 -9.316406 2.96875 -9.609375 C 3.625 -9.898438 4.390625 -10.046875 5.265625 -10.046875 C 6.097656 -10.046875 6.828125 -9.929688 7.453125 -9.703125 C 8.078125 -9.472656 8.5625 -9.144531 8.90625 -8.71875 C 9.257812 -8.289062 9.4375 -7.785156 9.4375 -7.203125 L 6.28125 -6.5625 C 6.289062 -6.875 6.195312 -7.125 6 -7.3125 C 5.800781 -7.507812 5.519531 -7.609375 5.15625 -7.609375 C 4.925781 -7.609375 4.734375 -7.554688 4.578125 -7.453125 C 4.421875 -7.347656 4.34375 -7.210938 4.34375 -7.046875 C 4.34375 -6.878906 4.441406 -6.738281 4.640625 -6.625 C 4.835938 -6.519531 5.113281 -6.429688 5.46875 -6.359375 L 6.3125 -6.1875 C 7.40625 -5.976562 8.195312 -5.640625 8.6875 -5.171875 C 9.175781 -4.703125 9.421875 -4.066406 9.421875 -3.265625 C 9.421875 -2.535156 9.21875 -1.898438 8.8125 -1.359375 C 8.40625 -0.828125 7.832031 -0.410156 7.09375 -0.109375 C 6.363281 0.179688 5.515625 0.328125 4.546875 0.328125 Z M 4.546875 0.328125 "/></g></g></g><g fill="#000000" fill-opacity="1"><g transform="translate(26.293756, 73.478914)"><g><path d="M 0.109375 0 L 0.5 -2.3125 L 0.78125 -2.3125 L 0.421875 -0.21875 L 1.5 -0.21875 L 1.453125 0 Z M 0.109375 0 "/></g></g></g><g fill="#000000" fill-opacity="1"><g transform="translate(29.342865, 73.478914)"><g><path d="M 1.15625 0.046875 C 0.96875 0.046875 0.800781 0.00390625 0.65625 -0.078125 C 0.507812 -0.171875 0.394531 -0.289062 0.3125 -0.4375 C 0.238281 -0.582031 0.203125 -0.75 0.203125 -0.9375 C 0.203125 -1.132812 0.238281 -1.316406 0.3125 -1.484375 C 0.382812 -1.660156 0.484375 -1.8125 0.609375 -1.9375 C 0.734375 -2.0625 0.878906 -2.160156 1.046875 -2.234375 C 1.210938 -2.304688 1.390625 -2.34375 1.578125 -2.34375 C 1.765625 -2.34375 1.929688 -2.300781 2.078125 -2.21875 C 2.222656 -2.132812 2.332031 -2.019531 2.40625 -1.875 C 2.488281 -1.726562 2.53125 -1.5625 2.53125 -1.375 C 2.53125 -1.175781 2.492188 -0.988281 2.421875 -0.8125 C 2.359375 -0.644531 2.257812 -0.492188 2.125 -0.359375 C 2 -0.234375 1.851562 -0.132812 1.6875 -0.0625 C 1.519531 0.0078125 1.34375 0.046875 1.15625 0.046875 Z M 1.203125 -0.203125 C 1.347656 -0.203125 1.484375 -0.226562 1.609375 -0.28125 C 1.734375 -0.34375 1.84375 -0.425781 1.9375 -0.53125 C 2.039062 -0.644531 2.117188 -0.769531 2.171875 -0.90625 C 2.222656 -1.039062 2.25 -1.191406 2.25 -1.359375 C 2.25 -1.503906 2.21875 -1.632812 2.15625 -1.75 C 2.101562 -1.863281 2.019531 -1.945312 1.90625 -2 C 1.800781 -2.0625 1.675781 -2.09375 1.53125 -2.09375 C 1.382812 -2.09375 1.25 -2.0625 1.125 -2 C 1 -1.945312 0.890625 -1.867188 0.796875 -1.765625 C 0.703125 -1.660156 0.625 -1.539062 0.5625 -1.40625 C 0.507812 -1.269531 0.484375 -1.117188 0.484375 -0.953125 C 0.484375 -0.804688 0.515625 -0.675781 0.578125 -0.5625 C 0.640625 -0.445312 0.722656 -0.359375 0.828125 -0.296875 C 0.941406 -0.234375 1.066406 -0.203125 1.203125 -0.203125 Z M 1.203125 -0.203125 "/></g></g></g><g fill="#000000" fill-opacity="1"><g transform="translate(33.2803, 73.478914)"><g><path d="M 1.125 0.046875 C 0.925781 0.046875 0.753906 0.0078125 0.609375 -0.0625 C 0.472656 -0.144531 0.367188 -0.253906 0.296875 -0.390625 C 0.222656 -0.535156 0.1875 -0.703125 0.1875 -0.890625 C 0.1875 -1.085938 0.21875 -1.273438 0.28125 -1.453125 C 0.351562 -1.640625 0.453125 -1.796875 0.578125 -1.921875 C 0.703125 -2.054688 0.84375 -2.160156 1 -2.234375 C 1.164062 -2.304688 1.34375 -2.34375 1.53125 -2.34375 C 1.789062 -2.34375 1.992188 -2.28125 2.140625 -2.15625 C 2.285156 -2.03125 2.359375 -1.851562 2.359375 -1.625 L 2.046875 -1.625 C 2.046875 -1.769531 2 -1.882812 1.90625 -1.96875 C 1.8125 -2.0625 1.671875 -2.109375 1.484375 -2.109375 C 1.335938 -2.109375 1.203125 -2.078125 1.078125 -2.015625 C 0.960938 -1.953125 0.859375 -1.863281 0.765625 -1.75 C 0.679688 -1.644531 0.613281 -1.519531 0.5625 -1.375 C 0.507812 -1.226562 0.484375 -1.070312 0.484375 -0.90625 C 0.484375 -0.6875 0.539062 -0.515625 0.65625 -0.390625 C 0.78125 -0.265625 0.945312 -0.203125 1.15625 -0.203125 C 1.34375 -0.203125 1.492188 -0.242188 1.609375 -0.328125 C 1.734375 -0.410156 1.828125 -0.523438 1.890625 -0.671875 L 2.203125 -0.671875 C 2.117188 -0.441406 1.984375 -0.265625 1.796875 -0.140625 C 1.609375 -0.015625 1.382812 0.046875 1.125 0.046875 Z M 1.125 0.046875 "/></g></g></g><g fill="#000000" fill-opacity="1"><g transform="translate(36.976663, 73.478914)"><g><path d="M -0.046875 0 L 1.21875 -2.3125 L 1.5 -2.3125 L 1.9375 0 L 1.65625 0 L 1.546875 -0.59375 L 0.5625 -0.59375 L 0.25 0 Z M 0.6875 -0.8125 L 1.515625 -0.8125 L 1.296875 -1.984375 Z M 0.6875 -0.8125 "/></g></g></g><g fill="#000000" fill-opacity="1"><g transform="translate(40.481494, 73.478914)"><g><path d="M 0.109375 0 L 0.5 -2.3125 L 1.21875 -2.3125 C 1.5625 -2.3125 1.816406 -2.226562 1.984375 -2.0625 C 2.148438 -1.90625 2.234375 -1.675781 2.234375 -1.375 C 2.234375 -1.101562 2.171875 -0.863281 2.046875 -0.65625 C 1.929688 -0.445312 1.769531 -0.285156 1.5625 -0.171875 C 1.351562 -0.0546875 1.101562 0 0.8125 0 Z M 0.421875 -0.234375 L 0.84375 -0.234375 C 1.070312 -0.234375 1.269531 -0.273438 1.4375 -0.359375 C 1.601562 -0.453125 1.726562 -0.582031 1.8125 -0.75 C 1.894531 -0.925781 1.9375 -1.128906 1.9375 -1.359375 C 1.9375 -1.585938 1.875 -1.765625 1.75 -1.890625 C 1.632812 -2.015625 1.441406 -2.078125 1.171875 -2.078125 L 0.75 -2.078125 Z M 0.421875 -0.234375 "/></g></g></g><g fill="#000000" fill-opacity="1"><g transform="translate(44.108511, 73.478914)"><g><path d="M 1.15625 0.046875 C 0.96875 0.046875 0.800781 0.00390625 0.65625 -0.078125 C 0.507812 -0.171875 0.394531 -0.289062 0.3125 -0.4375 C 0.238281 -0.582031 0.203125 -0.75 0.203125 -0.9375 C 0.203125 -1.132812 0.238281 -1.316406 0.3125 -1.484375 C 0.382812 -1.660156 0.484375 -1.8125 0.609375 -1.9375 C 0.734375 -2.0625 0.878906 -2.160156 1.046875 -2.234375 C 1.210938 -2.304688 1.390625 -2.34375 1.578125 -2.34375 C 1.765625 -2.34375 1.929688 -2.300781 2.078125 -2.21875 C 2.222656 -2.132812 2.332031 -2.019531 2.40625 -1.875 C 2.488281 -1.726562 2.53125 -1.5625 2.53125 -1.375 C 2.53125 -1.175781 2.492188 -0.988281 2.421875 -0.8125 C 2.359375 -0.644531 2.257812 -0.492188 2.125 -0.359375 C 2 -0.234375 1.851562 -0.132812 1.6875 -0.0625 C 1.519531 0.0078125 1.34375 0.046875 1.15625 0.046875 Z M 1.203125 -0.203125 C 1.347656 -0.203125 1.484375 -0.226562 1.609375 -0.28125 C 1.734375 -0.34375 1.84375 -0.425781 1.9375 -0.53125 C 2.039062 -0.644531 2.117188 -0.769531 2.171875 -0.90625 C 2.222656 -1.039062 2.25 -1.191406 2.25 -1.359375 C 2.25 -1.503906 2.21875 -1.632812 2.15625 -1.75 C 2.101562 -1.863281 2.019531 -1.945312 1.90625 -2 C 1.800781 -2.0625 1.675781 -2.09375 1.53125 -2.09375 C 1.382812 -2.09375 1.25 -2.0625 1.125 -2 C 1 -1.945312 0.890625 -1.867188 0.796875 -1.765625 C 0.703125 -1.660156 0.625 -1.539062 0.5625 -1.40625 C 0.507812 -1.269531 0.484375 -1.117188 0.484375 -0.953125 C 0.484375 -0.804688 0.515625 -0.675781 0.578125 -0.5625 C 0.640625 -0.445312 0.722656 -0.359375 0.828125 -0.296875 C 0.941406 -0.234375 1.066406 -0.203125 1.203125 -0.203125 Z M 1.203125 -0.203125 "/></g></g></g><g fill="#000000" fill-opacity="1"><g transform="translate(48.045946, 73.478914)"><g><path d="M 0.109375 0 L 0.5 -2.3125 L 1.25 -2.3125 C 1.40625 -2.3125 1.53125 -2.28125 1.625 -2.21875 C 1.726562 -2.164062 1.800781 -2.09375 1.84375 -2 C 1.894531 -1.914062 1.921875 -1.828125 1.921875 -1.734375 C 1.921875 -1.535156 1.863281 -1.375 1.75 -1.25 C 1.644531 -1.125 1.503906 -1.039062 1.328125 -1 L 1.640625 0 L 1.34375 0 L 1.046875 -0.953125 C 1.035156 -0.953125 1.019531 -0.953125 1 -0.953125 L 0.546875 -0.953125 L 0.375 0 Z M 0.59375 -1.171875 L 1.03125 -1.171875 C 1.21875 -1.171875 1.363281 -1.210938 1.46875 -1.296875 C 1.582031 -1.390625 1.640625 -1.523438 1.640625 -1.703125 C 1.640625 -1.804688 1.601562 -1.894531 1.53125 -1.96875 C 1.457031 -2.039062 1.34375 -2.078125 1.1875 -2.078125 L 0.75 -2.078125 Z M 0.59375 -1.171875 "/></g></g></g><g fill="#000000" fill-opacity="1"><g transform="translate(51.319612, 73.478914)"><g><path d="M -0.046875 0 L 1.21875 -2.3125 L 1.5 -2.3125 L 1.9375 0 L 1.65625 0 L 1.546875 -0.59375 L 0.5625 -0.59375 L 0.25 0 Z M 0.6875 -0.8125 L 1.515625 -0.8125 L 1.296875 -1.984375 Z M 0.6875 -0.8125 "/></g></g></g><g fill="#000000" fill-opacity="1"><g transform="translate(54.824443, 73.478914)"><g/></g></g><g fill="#000000" fill-opacity="1"><g transform="translate(57.080994, 73.478914)"><g><path d="M 0.109375 0 L 0.5 -2.3125 L 1.21875 -2.3125 C 1.5625 -2.3125 1.816406 -2.226562 1.984375 -2.0625 C 2.148438 -1.90625 2.234375 -1.675781 2.234375 -1.375 C 2.234375 -1.101562 2.171875 -0.863281 2.046875 -0.65625 C 1.929688 -0.445312 1.769531 -0.285156 1.5625 -0.171875 C 1.351562 -0.0546875 1.101562 0 0.8125 0 Z M 0.421875 -0.234375 L 0.84375 -0.234375 C 1.070312 -0.234375 1.269531 -0.273438 1.4375 -0.359375 C 1.601562 -0.453125 1.726562 -0.582031 1.8125 -0.75 C 1.894531 -0.925781 1.9375 -1.128906 1.9375 -1.359375 C 1.9375 -1.585938 1.875 -1.765625 1.75 -1.890625 C 1.632812 -2.015625 1.441406 -2.078125 1.171875 -2.078125 L 0.75 -2.078125 Z M 0.421875 -0.234375 "/></g></g></g><g fill="#000000" fill-opacity="1"><g transform="translate(60.708012, 73.478914)"><g><path d="M 0.109375 0 L 0.5 -2.3125 L 1.84375 -2.3125 L 1.796875 -2.09375 L 0.75 -2.09375 L 0.609375 -1.265625 L 1.5625 -1.265625 L 1.515625 -1.0625 L 0.5625 -1.0625 L 0.421875 -0.21875 L 1.46875 -0.21875 L 1.4375 0 Z M 0.109375 0 "/></g></g></g><g fill="#000000" fill-opacity="1"><g transform="translate(63.809957, 73.478914)"><g/></g></g><g fill="#000000" fill-opacity="1"><g transform="translate(66.066509, 73.478914)"><g><path d="M 1.125 0.046875 C 0.925781 0.046875 0.753906 0.0078125 0.609375 -0.0625 C 0.472656 -0.144531 0.367188 -0.253906 0.296875 -0.390625 C 0.222656 -0.535156 0.1875 -0.703125 0.1875 -0.890625 C 0.1875 -1.085938 0.21875 -1.273438 0.28125 -1.453125 C 0.351562 -1.640625 0.453125 -1.796875 0.578125 -1.921875 C 0.703125 -2.054688 0.84375 -2.160156 1 -2.234375 C 1.164062 -2.304688 1.34375 -2.34375 1.53125 -2.34375 C 1.789062 -2.34375 1.992188 -2.28125 2.140625 -2.15625 C 2.285156 -2.03125 2.359375 -1.851562 2.359375 -1.625 L 2.046875 -1.625 C 2.046875 -1.769531 2 -1.882812 1.90625 -1.96875 C 1.8125 -2.0625 1.671875 -2.109375 1.484375 -2.109375 C 1.335938 -2.109375 1.203125 -2.078125 1.078125 -2.015625 C 0.960938 -1.953125 0.859375 -1.863281 0.765625 -1.75 C 0.679688 -1.644531 0.613281 -1.519531 0.5625 -1.375 C 0.507812 -1.226562 0.484375 -1.070312 0.484375 -0.90625 C 0.484375 -0.6875 0.539062 -0.515625 0.65625 -0.390625 C 0.78125 -0.265625 0.945312 -0.203125 1.15625 -0.203125 C 1.34375 -0.203125 1.492188 -0.242188 1.609375 -0.328125 C 1.734375 -0.410156 1.828125 -0.523438 1.890625 -0.671875 L 2.203125 -0.671875 C 2.117188 -0.441406 1.984375 -0.265625 1.796875 -0.140625 C 1.609375 -0.015625 1.382812 0.046875 1.125 0.046875 Z M 1.125 0.046875 "/></g></g></g><g fill="#000000" fill-opacity="1"><g transform="translate(69.762872, 73.478914)"><g><path d="M -0.046875 0 L 1.21875 -2.3125 L 1.5 -2.3125 L 1.9375 0 L 1.65625 0 L 1.546875 -0.59375 L 0.5625 -0.59375 L 0.25 0 Z M 0.6875 -0.8125 L 1.515625 -0.8125 L 1.296875 -1.984375 Z M 0.6875 -0.8125 "/></g></g></g><g fill="#000000" fill-opacity="1"><g transform="translate(73.267703, 73.478914)"><g><path d="M 0.109375 0 L 0.5 -2.3125 L 1.25 -2.3125 C 1.40625 -2.3125 1.53125 -2.28125 1.625 -2.21875 C 1.726562 -2.164062 1.800781 -2.09375 1.84375 -2 C 1.894531 -1.914062 1.921875 -1.828125 1.921875 -1.734375 C 1.921875 -1.535156 1.863281 -1.375 1.75 -1.25 C 1.644531 -1.125 1.503906 -1.039062 1.328125 -1 L 1.640625 0 L 1.34375 0 L 1.046875 -0.953125 C 1.035156 -0.953125 1.019531 -0.953125 1 -0.953125 L 0.546875 -0.953125 L 0.375 0 Z M 0.59375 -1.171875 L 1.03125 -1.171875 C 1.21875 -1.171875 1.363281 -1.210938 1.46875 -1.296875 C 1.582031 -1.390625 1.640625 -1.523438 1.640625 -1.703125 C 1.640625 -1.804688 1.601562 -1.894531 1.53125 -1.96875 C 1.457031 -2.039062 1.34375 -2.078125 1.1875 -2.078125 L 0.75 -2.078125 Z M 0.59375 -1.171875 "/></g></g></g><g fill="#000000" fill-opacity="1"><g transform="translate(76.54137, 73.478914)"><g><path d="M 0.109375 0 L 0.5 -2.3125 L 1.25 -2.3125 C 1.40625 -2.3125 1.53125 -2.28125 1.625 -2.21875 C 1.726562 -2.164062 1.800781 -2.09375 1.84375 -2 C 1.894531 -1.914062 1.921875 -1.828125 1.921875 -1.734375 C 1.921875 -1.535156 1.863281 -1.375 1.75 -1.25 C 1.644531 -1.125 1.503906 -1.039062 1.328125 -1 L 1.640625 0 L 1.34375 0 L 1.046875 -0.953125 C 1.035156 -0.953125 1.019531 -0.953125 1 -0.953125 L 0.546875 -0.953125 L 0.375 0 Z M 0.59375 -1.171875 L 1.03125 -1.171875 C 1.21875 -1.171875 1.363281 -1.210938 1.46875 -1.296875 C 1.582031 -1.390625 1.640625 -1.523438 1.640625 -1.703125 C 1.640625 -1.804688 1.601562 -1.894531 1.53125 -1.96875 C 1.457031 -2.039062 1.34375 -2.078125 1.1875 -2.078125 L 0.75 -2.078125 Z M 0.59375 -1.171875 "/></g></g></g><g fill="#000000" fill-opacity="1"><g transform="translate(79.815036, 73.478914)"><g><path d="M 1.15625 0.046875 C 0.96875 0.046875 0.800781 0.00390625 0.65625 -0.078125 C 0.507812 -0.171875 0.394531 -0.289062 0.3125 -0.4375 C 0.238281 -0.582031 0.203125 -0.75 0.203125 -0.9375 C 0.203125 -1.132812 0.238281 -1.316406 0.3125 -1.484375 C 0.382812 -1.660156 0.484375 -1.8125 0.609375 -1.9375 C 0.734375 -2.0625 0.878906 -2.160156 1.046875 -2.234375 C 1.210938 -2.304688 1.390625 -2.34375 1.578125 -2.34375 C 1.765625 -2.34375 1.929688 -2.300781 2.078125 -2.21875 C 2.222656 -2.132812 2.332031 -2.019531 2.40625 -1.875 C 2.488281 -1.726562 2.53125 -1.5625 2.53125 -1.375 C 2.53125 -1.175781 2.492188 -0.988281 2.421875 -0.8125 C 2.359375 -0.644531 2.257812 -0.492188 2.125 -0.359375 C 2 -0.234375 1.851562 -0.132812 1.6875 -0.0625 C 1.519531 0.0078125 1.34375 0.046875 1.15625 0.046875 Z M 1.203125 -0.203125 C 1.347656 -0.203125 1.484375 -0.226562 1.609375 -0.28125 C 1.734375 -0.34375 1.84375 -0.425781 1.9375 -0.53125 C 2.039062 -0.644531 2.117188 -0.769531 2.171875 -0.90625 C 2.222656 -1.039062 2.25 -1.191406 2.25 -1.359375 C 2.25 -1.503906 2.21875 -1.632812 2.15625 -1.75 C 2.101562 -1.863281 2.019531 -1.945312 1.90625 -2 C 1.800781 -2.0625 1.675781 -2.09375 1.53125 -2.09375 C 1.382812 -2.09375 1.25 -2.0625 1.125 -2 C 1 -1.945312 0.890625 -1.867188 0.796875 -1.765625 C 0.703125 -1.660156 0.625 -1.539062 0.5625 -1.40625 C 0.507812 -1.269531 0.484375 -1.117188 0.484375 -0.953125 C 0.484375 -0.804688 0.515625 -0.675781 0.578125 -0.5625 C 0.640625 -0.445312 0.722656 -0.359375 0.828125 -0.296875 C 0.941406 -0.234375 1.066406 -0.203125 1.203125 -0.203125 Z M 1.203125 -0.203125 "/></g></g></g><g fill="#000000" fill-opacity="1"><g transform="translate(83.75247, 73.478914)"><g><path d="M 0.890625 0.046875 C 0.734375 0.046875 0.597656 0.0195312 0.484375 -0.03125 C 0.367188 -0.0820312 0.28125 -0.148438 0.21875 -0.234375 C 0.15625 -0.328125 0.125 -0.4375 0.125 -0.5625 C 0.125 -0.582031 0.125 -0.601562 0.125 -0.625 C 0.132812 -0.644531 0.140625 -0.664062 0.140625 -0.6875 L 0.4375 -0.6875 C 0.425781 -0.65625 0.421875 -0.628906 0.421875 -0.609375 C 0.421875 -0.484375 0.460938 -0.378906 0.546875 -0.296875 C 0.640625 -0.222656 0.765625 -0.1875 0.921875 -0.1875 C 1.097656 -0.1875 1.226562 -0.226562 1.3125 -0.3125 C 1.40625 -0.40625 1.453125 -0.519531 1.453125 -0.65625 C 1.453125 -0.726562 1.429688 -0.785156 1.390625 -0.828125 C 1.359375 -0.878906 1.3125 -0.921875 1.25 -0.953125 C 1.1875 -0.992188 1.117188 -1.023438 1.046875 -1.046875 C 0.972656 -1.066406 0.898438 -1.09375 0.828125 -1.125 C 0.679688 -1.175781 0.570312 -1.25 0.5 -1.34375 C 0.425781 -1.4375 0.390625 -1.539062 0.390625 -1.65625 C 0.390625 -1.789062 0.421875 -1.910156 0.484375 -2.015625 C 0.554688 -2.117188 0.65625 -2.195312 0.78125 -2.25 C 0.90625 -2.3125 1.046875 -2.34375 1.203125 -2.34375 C 1.335938 -2.34375 1.453125 -2.320312 1.546875 -2.28125 C 1.648438 -2.238281 1.726562 -2.175781 1.78125 -2.09375 C 1.832031 -2.007812 1.859375 -1.914062 1.859375 -1.8125 C 1.859375 -1.78125 1.859375 -1.742188 1.859375 -1.703125 L 1.5625 -1.703125 C 1.5625 -1.710938 1.5625 -1.722656 1.5625 -1.734375 C 1.570312 -1.742188 1.578125 -1.753906 1.578125 -1.765625 C 1.578125 -1.859375 1.539062 -1.9375 1.46875 -2 C 1.40625 -2.070312 1.304688 -2.109375 1.171875 -2.109375 C 1.023438 -2.109375 0.90625 -2.066406 0.8125 -1.984375 C 0.726562 -1.910156 0.6875 -1.816406 0.6875 -1.703125 C 0.6875 -1.617188 0.710938 -1.550781 0.765625 -1.5 C 0.816406 -1.445312 0.882812 -1.40625 0.96875 -1.375 C 1.0625 -1.34375 1.164062 -1.304688 1.28125 -1.265625 C 1.414062 -1.210938 1.523438 -1.140625 1.609375 -1.046875 C 1.703125 -0.960938 1.75 -0.847656 1.75 -0.703125 C 1.75 -0.546875 1.710938 -0.410156 1.640625 -0.296875 C 1.566406 -0.191406 1.460938 -0.109375 1.328125 -0.046875 C 1.203125 0.015625 1.054688 0.046875 0.890625 0.046875 Z M 0.890625 0.046875 "/></g></g></g></svg>